<svg xmlns="http://www.w3.org/2000/svg" xmlns:xlink="http://www.w3.org/1999/xlink" width="268" height="275" viewBox="0 0 268 275">
  <defs>
    <clipPath id="clip-path">
      <rect id="Rectangle_3239" data-name="Rectangle 3239" width="268" height="275" rx="8" transform="translate(984 271)" fill="#f1effd" stroke="#d7d1f9" stroke-width="1"/>
    </clipPath>
    <filter id="Rectangle_3227" x="-12" y="31.137" width="500.946" height="367.863" filterUnits="userSpaceOnUse">
      <feOffset dy="50" input="SourceAlpha"/>
      <feGaussianBlur stdDeviation="15" result="blur"/>
      <feFlood flood-color="#7b68ee" flood-opacity="0.2"/>
      <feComposite operator="in" in2="blur"/>
      <feComposite in="SourceGraphic"/>
    </filter>
    <clipPath id="clip-path-2">
      <rect id="Rectangle_310" data-name="Rectangle 310" width="99.771" height="52.126" fill="none"/>
    </clipPath>
    <filter id="Rectangle_3226" x="-34.519" y="151.969" width="295.015" height="179.694" filterUnits="userSpaceOnUse">
      <feOffset input="SourceAlpha"/>
      <feGaussianBlur stdDeviation="15" result="blur-2"/>
      <feFlood flood-color="#7b68ee" flood-opacity="0.2"/>
      <feComposite operator="in" in2="blur-2"/>
      <feComposite in="SourceGraphic"/>
    </filter>
  </defs>
  <g id="graphic-staffing-org" transform="translate(-984 -271)" clip-path="url(#clip-path)">
    <g id="Group_6764" data-name="Group 6764" transform="translate(1 -64.613)">
      <g transform="matrix(1, 0, 0, 1, 983, 335.61)" filter="url(#Rectangle_3227)">
        <rect id="Rectangle_3227-2" data-name="Rectangle 3227" width="410.946" height="272.863" rx="22" transform="translate(33 31.14)" fill="#fff"/>
      </g>
      <g id="Group_6763" data-name="Group 6763" transform="translate(1027.359 368.755)">
        <g id="Group_6419" data-name="Group 6419" clip-path="url(#clip-path-2)">
          <g id="Group_6418" data-name="Group 6418">
            <g id="Group_6417" data-name="Group 6417" clip-path="url(#clip-path-2)">
              <path id="Path_31" data-name="Path 31" d="M64.252,86.4c0-2.125-.017-4.249,0-6.374A7.086,7.086,0,0,1,78.28,78.646a12.93,12.93,0,0,1,.1,2.632q.018,3.278,0,6.556a2.932,2.932,0,0,1-5.85.4,27.664,27.664,0,0,1,.1-5.813,5.344,5.344,0,0,1,2.294-3.582c.279-.2.665-.679,1-.206.277.4.533,1.061.047,1.423-1.758,1.308-1.881,3.133-1.8,5.069.039.879-.007,1.761.012,2.64s.543,1.487,1.263,1.483A1.382,1.382,0,0,0,76.791,87.8c.039-1.821.029-3.642.015-5.463a18.622,18.622,0,0,0-.129-3.177A5.485,5.485,0,0,0,71.1,74.639a5.35,5.35,0,0,0-5.136,5.271c-.044,4.34-.021,8.68-.01,13.021a1.608,1.608,0,0,0,1.6,1.809,1.584,1.584,0,0,0,1.661-1.751q.031-4.325,0-8.65A4.377,4.377,0,0,0,67.141,80.6c-.331-.225-.641-.417-.608-.916.068-1.032.343-1.216,1.213-.666a6.208,6.208,0,0,1,3.163,5.492c0,2.823.01,5.645,0,8.468a3.329,3.329,0,1,1-6.651-.022c-.017-2.185,0-4.371,0-6.556" transform="translate(-48.513 -55.144)" fill="#bbc1ce"/>
              <path id="Path_32" data-name="Path 32" d="M127.21,102.238c0-1.214.008-2.428,0-3.641a4.139,4.139,0,0,0-2.562-4.046,1.62,1.62,0,0,1-.561-.288A1.325,1.325,0,0,1,123.8,92.9c.188-.435.66-.106.967-.019a5.653,5.653,0,0,1,4.072,5.635c.088,2.576.022,5.158.018,7.737a1.263,1.263,0,0,1-.34,1,.7.7,0,0,1-.766.131.844.844,0,0,1-.531-.873c0-1.426,0-2.852,0-4.278h-.008" transform="translate(-93.419 -69.985)" fill="rgba(120,132,158,0.5)"/>
              <path id="Path_33" data-name="Path 33" d="M39.2,103.447a20.438,20.438,0,0,1,.158-4.018,6.125,6.125,0,0,1,4.606-4.889c.264-.074.729-.4.838.093.1.428.183,1-.336,1.315a4.594,4.594,0,0,1-.675.268,4.6,4.6,0,0,0-2.983,4.379c-.014,2.125,0,4.249-.006,6.374a7.063,7.063,0,0,1-.024.818c-.058.491-.243.913-.829.888-.532-.023-.728-.435-.739-.883-.028-1.244-.01-2.488-.01-4.344" transform="translate(-29.579 -71.257)" fill="rgba(120,132,158,0.5)"/>
              <path id="Path_34" data-name="Path 34" d="M81.378,47.08a2.92,2.92,0,1,1,5.84.081,3.013,3.013,0,0,1-2.932,2.9,2.948,2.948,0,0,1-2.908-2.985m4.168.074A1.273,1.273,0,0,0,84.362,45.9a1.162,1.162,0,0,0-1.289,1.2,1.15,1.15,0,0,0,1.136,1.259,1.292,1.292,0,0,0,1.337-1.2" transform="translate(-61.449 -33.365)" fill="#bbc1ce"/>
              <path id="Path_35" data-name="Path 35" d="M117.749,67.606a2.92,2.92,0,1,1,5.84.081,3.013,3.013,0,0,1-2.932,2.9,2.948,2.948,0,0,1-2.908-2.985m4.168.074a1.273,1.273,0,0,0-1.184-1.255,1.162,1.162,0,0,0-1.289,1.2,1.15,1.15,0,0,0,1.136,1.259,1.292,1.292,0,0,0,1.337-1.2" transform="translate(-88.913 -48.864)" fill="rgba(120,132,158,0.5)"/>
              <path id="Path_36" data-name="Path 36" d="M50.311,64.4a2.833,2.833,0,1,1,2.859,2.914A2.878,2.878,0,0,1,50.311,64.4m2.809-1.249a1.272,1.272,0,1,0,1.344,1.292,1.346,1.346,0,0,0-1.344-1.292" transform="translate(-37.99 -46.463)" fill="rgba(120,132,158,0.5)"/>
            </g>
          </g>
        </g>
      </g>
      <text id="Dishwasher" transform="translate(1036.481 432.641)" fill="#2a2e43" font-size="18" font-family="Inter-SemiBold, Inter" font-weight="600"><tspan x="0" y="0">Dishwasher</tspan></text>
      <text id="Description" transform="translate(1036.481 456.996)" fill="#454f63" font-size="7" font-family="Inter-Medium, Inter" font-weight="500"><tspan x="0" y="0">Description</tspan></text>
      <text id="Order_Info" data-name="Order Info" transform="translate(1036.481 506.208)" fill="#78849e" font-size="6" font-family="Inter-Regular, Inter"><tspan x="0" y="0">Order Info</tspan></text>
      <rect id="Rectangle_3228" data-name="Rectangle 3228" width="173.099" height="3.964" rx="1.982" transform="translate(1037.803 466.513)" fill="#ececf1"/>
      <rect id="Rectangle_3229" data-name="Rectangle 3229" width="184.992" height="3.964" rx="1.982" transform="translate(1037.803 472.46)" fill="#ececf1"/>
      <rect id="Rectangle_3230" data-name="Rectangle 3230" width="141.387" height="3.964" rx="1.982" transform="translate(1037.803 479.066)" fill="#ececf1"/>
      <rect id="Rectangle_3231" data-name="Rectangle 3231" width="159.886" height="3.964" rx="1.982" transform="translate(1050.356 520.029)" fill="#ececf1"/>
      <rect id="Rectangle_3233" data-name="Rectangle 3233" width="159.886" height="3.964" rx="1.982" transform="translate(1050.356 538.528)" fill="#ececf1"/>
      <rect id="Rectangle_3235" data-name="Rectangle 3235" width="159.886" height="3.964" rx="1.982" transform="translate(1050.356 557.688)" fill="#ececf1"/>
      <rect id="Rectangle_3237" data-name="Rectangle 3237" width="159.886" height="3.964" rx="1.982" transform="translate(1050.356 575.526)" fill="#ececf1"/>
      <rect id="Rectangle_3232" data-name="Rectangle 3232" width="172.439" height="3.964" rx="1.982" transform="translate(1050.356 526.636)" fill="#ececf1"/>
      <rect id="Rectangle_3234" data-name="Rectangle 3234" width="172.439" height="3.964" rx="1.982" transform="translate(1050.356 544.474)" fill="#ececf1"/>
      <rect id="Rectangle_3236" data-name="Rectangle 3236" width="172.439" height="3.964" rx="1.982" transform="translate(1050.356 563.634)" fill="#ececf1"/>
      <rect id="Rectangle_3238" data-name="Rectangle 3238" width="172.439" height="3.964" rx="1.982" transform="translate(1050.356 582.794)" fill="#ececf1"/>
      <circle id="Ellipse_361" data-name="Ellipse 361" cx="1.652" cy="1.652" r="1.652" transform="translate(1036.481 520.69)" fill="#78849e"/>
      <circle id="Ellipse_362" data-name="Ellipse 362" cx="1.652" cy="1.652" r="1.652" transform="translate(1036.481 539.189)" fill="#78849e"/>
      <circle id="Ellipse_363" data-name="Ellipse 363" cx="1.652" cy="1.652" r="1.652" transform="translate(1036.481 557.688)" fill="#78849e"/>
      <circle id="Ellipse_364" data-name="Ellipse 364" cx="1.652" cy="1.652" r="1.652" transform="translate(1036.481 576.187)" fill="#78849e"/>
      <g id="Group_6758" data-name="Group 6758" transform="translate(556.481 -64.429)">
        <g transform="matrix(1, 0, 0, 1, 426.52, 400.04)" filter="url(#Rectangle_3226)">
          <path id="Rectangle_3226-2" data-name="Rectangle 3226" d="M11,0H194.015a11,11,0,0,1,11,11V67.694a22,22,0,0,1-22,22H22a22,22,0,0,1-22-22V11A11,11,0,0,1,11,0Z" transform="translate(10.48 196.97)" fill="#fff"/>
        </g>
        <g id="Group_6757" data-name="Group 6757" transform="translate(452.511 611.173)">
          <rect id="Rectangle_3218" data-name="Rectangle 3218" width="125.437" height="4.721" rx="2.36" transform="translate(22.929 0)" fill="#ececf1"/>
          <rect id="Rectangle_3219" data-name="Rectangle 3219" width="141.622" height="5.395" rx="2.698" transform="translate(22.929 8.093)" fill="#ececf1"/>
          <rect id="Rectangle_366" data-name="Rectangle 366" width="12.813" height="13.488" rx="4" transform="translate(4.721 0)" fill="#79d5ee"/>
          <g id="Group_6756" data-name="Group 6756" transform="translate(0 24.952)">
            <rect id="Rectangle_367" data-name="Rectangle 367" width="172.644" height="24.952" rx="5" transform="translate(0.008 -0.084)" fill="rgba(33,185,228,0.09)"/>
            <text id="Claim_Order" data-name="Claim Order" transform="translate(86.008 16.916)" fill="#21b9e4" font-size="10" font-family="Inter-Medium, Inter" font-weight="500"><tspan x="-28" y="0">Claim Order</tspan></text>
          </g>
        </g>
      </g>
    </g>
  </g>
</svg>
