<svg xmlns="http://www.w3.org/2000/svg" width="17.271" height="18.999" viewBox="0 0 17.271 18.999">
  <g id="ico-home" transform="translate(-3 -1.5)">
    <path id="Path_7" data-name="Path 7" d="M11.636,1.5a.862.862,0,0,1,.53.182l7.772,6.045a.864.864,0,0,1,.333.682v9.5A2.594,2.594,0,0,1,17.681,20.5H5.591A2.594,2.594,0,0,1,3,17.908v-9.5a.864.864,0,0,1,.333-.682l7.772-6.045A.862.862,0,0,1,11.636,1.5Zm6.909,7.331L11.636,3.458,4.727,8.831v9.077a.865.865,0,0,0,.864.864h12.09a.865.865,0,0,0,.864-.864Z" fill="#21b9e4"/>
    <path id="Path_8" data-name="Path 8" d="M18.045,26.863A.864.864,0,0,1,17.181,26V18.227H13.727V26A.864.864,0,1,1,12,26V17.364a.864.864,0,0,1,.864-.864h5.181a.864.864,0,0,1,.864.864V26A.864.864,0,0,1,18.045,26.863Z" transform="translate(-3.819 -6.364)" fill="#21b9e4"/>
  </g>
</svg>
