<svg xmlns="http://www.w3.org/2000/svg" width="15.611" height="17.173" viewBox="0 0 15.611 17.173">
  <path id="ico-order" d="M14.44,3.435,8.977.313a2.34,2.34,0,0,0-2.34,0L1.171,3.437A2.348,2.348,0,0,0,0,5.463V11.71a2.349,2.349,0,0,0,1.174,2.027l5.463,3.122a2.334,2.334,0,0,0,2.34,0l5.463-3.122a2.349,2.349,0,0,0,1.171-2.027V5.461A2.348,2.348,0,0,0,14.44,3.435M7.419,1.668a.779.779,0,0,1,.781,0l5.039,2.881L7.806,7.692,2.37,4.55ZM1.951,12.383a.782.782,0,0,1-.39-.674V5.887L7.026,9.05v6.232Zm11.707,0-5.071,2.9V9.044l5.461-3.158v5.822a.784.784,0,0,1-.39.675" transform="translate(0 0.001)" fill="#78849e"/>
</svg>
