<svg xmlns="http://www.w3.org/2000/svg" width="17.564" height="14.293" viewBox="0 0 17.564 14.293">
  <path id="ico-twitter" d="M18.978,6.194a7.285,7.285,0,0,1-2.069.569,3.616,3.616,0,0,0,1.586-2,7.16,7.16,0,0,1-2.289.875A3.6,3.6,0,0,0,9.97,8.107a3.528,3.528,0,0,0,.093.823,10.212,10.212,0,0,1-7.429-3.77,3.611,3.611,0,0,0,1.12,4.816,3.52,3.52,0,0,1-1.638-.45v.045a3.607,3.607,0,0,0,2.892,3.536,3.627,3.627,0,0,1-.949.127,3.4,3.4,0,0,1-.677-.067,3.609,3.609,0,0,0,3.368,2.5,7.225,7.225,0,0,1-4.478,1.545,7.3,7.3,0,0,1-.86-.052,10.073,10.073,0,0,0,5.516,1.63A10.192,10.192,0,0,0,17.191,8.527c0-.156,0-.313-.011-.465A7.336,7.336,0,0,0,18.978,6.194Z" transform="translate(-1.413 -4.5)" fill="#78849e"/>
</svg>
