<svg width="12" height="14" viewBox="0 0 12 14" fill="none" xmlns="http://www.w3.org/2000/svg">
<g clip-path="url(#clip0_121_222)">
<mask id="path-1-inside-1_121_222" fill="white">
<path d="M10.9143 0C10.9143 0.254406 10.6682 0.461371 10.3657 0.461371C10.0632 0.461371 9.81713 0.254406 9.81713 0H8.73143C8.73143 0.254406 8.48533 0.461371 8.1829 0.461371C7.88042 0.461371 7.63425 0.254406 7.63425 0H6.54859C6.54859 0.254406 6.30246 0.461371 5.99999 0.461371C5.69751 0.461371 5.45138 0.254406 5.45138 0H4.36572C4.36572 0.254406 4.1196 0.461371 3.81712 0.461371C3.51464 0.461371 3.26854 0.254406 3.26854 0H2.18288C2.18288 0.254406 1.93676 0.461371 1.63428 0.461371C1.3318 0.461371 1.08568 0.254406 1.08568 0H0V14H1.08568C1.08568 13.7455 1.3318 13.5386 1.63428 13.5386C1.93676 13.5386 2.18288 13.7455 2.18288 14H3.26854C3.26854 13.7455 3.51464 13.5386 3.81712 13.5386C4.1196 13.5386 4.36572 13.7455 4.36572 14H5.45138C5.45138 13.7455 5.69751 13.5386 5.99999 13.5386C6.30246 13.5386 6.54859 13.7455 6.54859 14H7.63425C7.63425 13.7455 7.88039 13.5386 8.18285 13.5386C8.48533 13.5386 8.73143 13.7455 8.73143 14H9.81709C9.81709 13.7455 10.0632 13.5386 10.3657 13.5386C10.6682 13.5386 10.9143 13.7455 10.9143 14H12V0H10.9143ZM10.9143 12.7052C10.7428 12.6537 10.558 12.6255 10.3657 12.6255C9.94653 12.6255 9.56385 12.7591 9.27427 12.9781C8.98468 12.7591 8.60203 12.6255 8.1829 12.6255C7.76372 12.6255 7.38104 12.7591 7.09148 12.9781C6.80187 12.7591 6.41919 12.6255 6.00006 12.6255C5.58091 12.6255 5.1982 12.7591 4.90864 12.9781C4.61903 12.7591 4.23635 12.6255 3.81722 12.6255C3.39807 12.6255 3.0154 12.7591 2.72582 12.9781C2.43622 12.7591 2.05353 12.6255 1.6344 12.6255C1.44209 12.6255 1.25735 12.6537 1.0858 12.7052V1.29475C1.25735 1.3463 1.44209 1.3744 1.6344 1.3744C2.05358 1.3744 2.43626 1.24089 2.72582 1.02192C3.01543 1.24089 3.39807 1.3744 3.81722 1.3744C4.23637 1.3744 4.61906 1.24089 4.90864 1.02192C5.19824 1.24089 5.58091 1.3744 6.00006 1.3744C6.41919 1.3744 6.8019 1.24089 7.09148 1.02192C7.38108 1.24089 7.76377 1.3744 8.1829 1.3744C8.60203 1.3744 8.98471 1.24089 9.27427 1.02192C9.56388 1.24089 9.94656 1.3744 10.3657 1.3744C10.558 1.3744 10.7428 1.34632 10.9143 1.29475V12.7052Z"/>
</mask>
<path d="M10.9143 0C10.9143 0.254406 10.6682 0.461371 10.3657 0.461371C10.0632 0.461371 9.81713 0.254406 9.81713 0H8.73143C8.73143 0.254406 8.48533 0.461371 8.1829 0.461371C7.88042 0.461371 7.63425 0.254406 7.63425 0H6.54859C6.54859 0.254406 6.30246 0.461371 5.99999 0.461371C5.69751 0.461371 5.45138 0.254406 5.45138 0H4.36572C4.36572 0.254406 4.1196 0.461371 3.81712 0.461371C3.51464 0.461371 3.26854 0.254406 3.26854 0H2.18288C2.18288 0.254406 1.93676 0.461371 1.63428 0.461371C1.3318 0.461371 1.08568 0.254406 1.08568 0H0V14H1.08568C1.08568 13.7455 1.3318 13.5386 1.63428 13.5386C1.93676 13.5386 2.18288 13.7455 2.18288 14H3.26854C3.26854 13.7455 3.51464 13.5386 3.81712 13.5386C4.1196 13.5386 4.36572 13.7455 4.36572 14H5.45138C5.45138 13.7455 5.69751 13.5386 5.99999 13.5386C6.30246 13.5386 6.54859 13.7455 6.54859 14H7.63425C7.63425 13.7455 7.88039 13.5386 8.18285 13.5386C8.48533 13.5386 8.73143 13.7455 8.73143 14H9.81709C9.81709 13.7455 10.0632 13.5386 10.3657 13.5386C10.6682 13.5386 10.9143 13.7455 10.9143 14H12V0H10.9143ZM10.9143 12.7052C10.7428 12.6537 10.558 12.6255 10.3657 12.6255C9.94653 12.6255 9.56385 12.7591 9.27427 12.9781C8.98468 12.7591 8.60203 12.6255 8.1829 12.6255C7.76372 12.6255 7.38104 12.7591 7.09148 12.9781C6.80187 12.7591 6.41919 12.6255 6.00006 12.6255C5.58091 12.6255 5.1982 12.7591 4.90864 12.9781C4.61903 12.7591 4.23635 12.6255 3.81722 12.6255C3.39807 12.6255 3.0154 12.7591 2.72582 12.9781C2.43622 12.7591 2.05353 12.6255 1.6344 12.6255C1.44209 12.6255 1.25735 12.6537 1.0858 12.7052V1.29475C1.25735 1.3463 1.44209 1.3744 1.6344 1.3744C2.05358 1.3744 2.43626 1.24089 2.72582 1.02192C3.01543 1.24089 3.39807 1.3744 3.81722 1.3744C4.23637 1.3744 4.61906 1.24089 4.90864 1.02192C5.19824 1.24089 5.58091 1.3744 6.00006 1.3744C6.41919 1.3744 6.8019 1.24089 7.09148 1.02192C7.38108 1.24089 7.76377 1.3744 8.1829 1.3744C8.60203 1.3744 8.98471 1.24089 9.27427 1.02192C9.56388 1.24089 9.94656 1.3744 10.3657 1.3744C10.558 1.3744 10.7428 1.34632 10.9143 1.29475V12.7052Z" fill="#78849E"/>
<path d="M10.9143 0V-400H-389.086V0H10.9143ZM9.81713 0H409.817V-400H9.81713V0ZM8.73143 0V-400H-391.269V0H8.73143ZM7.63425 0H407.634V-400H7.63425V0ZM6.54859 0V-400H-393.451V0H6.54859ZM5.45138 0H405.451V-400H5.45138V0ZM4.36572 0V-400H-395.634V0H4.36572ZM3.26854 0H403.269V-400H3.26854V0ZM2.18288 0V-400H-397.817V0H2.18288ZM1.08568 0H401.086V-400H1.08568V0ZM0 0V-400H-400V0H0ZM0 14H-400V414H0V14ZM1.08568 14V414H401.086V14H1.08568ZM2.18288 14H-397.817V414H2.18288V14ZM3.26854 14V414H403.269V14H3.26854ZM4.36572 14H-395.634V414H4.36572V14ZM5.45138 14V414H405.451V14H5.45138ZM6.54859 14H-393.451V414H6.54859V14ZM7.63425 14V414H407.634V14H7.63425ZM8.73143 14H-391.269V414H8.73143V14ZM9.81709 14V414H409.817V14H9.81709ZM10.9143 14H-389.086V414H10.9143V14ZM12 14V414H412V14H12ZM12 0H412V-400H12V0ZM10.9143 12.7052L-104.235 395.773L410.914 550.625V12.7052H10.9143ZM9.27427 12.9781L-231.987 332.028L9.28005 514.471L250.543 332.022L9.27427 12.9781ZM7.09148 12.9781L-234.163 332.034L7.10881 514.471L248.368 332.017L7.09148 12.9781ZM4.90864 12.9781L-236.346 332.034L4.92597 514.471L246.185 332.017L4.90864 12.9781ZM2.72582 12.9781L-238.528 332.034L2.73738 514.467L243.995 332.022L2.72582 12.9781ZM1.0858 12.7052H-398.914V550.625L116.235 395.773L1.0858 12.7052ZM1.0858 1.29475L116.187 -381.787L-398.914 -536.555V1.29475H1.0858ZM2.72582 1.02192L243.972 -318.04L2.70849 -500.462L-238.542 -318.023L2.72582 1.02192ZM4.90864 1.02192L246.155 -318.04L4.89708 -500.457L-236.352 -318.029L4.90864 1.02192ZM7.09148 1.02192L248.338 -318.04L7.07992 -500.457L-234.169 -318.029L7.09148 1.02192ZM9.27427 1.02192L250.52 -318.04L9.25694 -500.462L-231.994 -318.023L9.27427 1.02192ZM10.9143 1.29475H410.914V-536.625L-104.235 -381.773L10.9143 1.29475ZM-389.086 0C-389.086 -282.79 -142.516 -399.539 10.3657 -399.539V400.461C163.852 400.461 410.914 283.298 410.914 0H-389.086ZM10.3657 -399.539C163.305 -399.539 409.817 -282.741 409.817 0H-390.183C-390.183 283.25 -143.178 400.461 10.3657 400.461V-399.539ZM9.81713 -400H8.73143V400H9.81713V-400ZM-391.269 0C-391.269 -282.736 -144.762 -399.539 8.1829 -399.539V400.461C161.733 400.461 408.731 283.245 408.731 0H-391.269ZM8.1829 -399.539C161.037 -399.539 407.634 -282.813 407.634 0H-392.366C-392.366 283.322 -145.276 400.461 8.1829 400.461V-399.539ZM7.63425 -400H6.54859V400H7.63425V-400ZM-393.451 0C-393.451 -282.777 -146.896 -399.539 5.99999 -399.539V400.461C159.501 400.461 406.549 283.286 406.549 0H-393.451ZM5.99999 -399.539C158.897 -399.539 405.451 -282.777 405.451 0H-394.549C-394.549 283.285 -147.502 400.461 5.99999 400.461V-399.539ZM5.45138 -400H4.36572V400H5.45138V-400ZM-395.634 0C-395.634 -282.777 -149.08 -399.539 3.81712 -399.539V400.461C157.319 400.461 404.366 283.285 404.366 0H-395.634ZM3.81712 -399.539C156.741 -399.539 403.269 -282.754 403.269 0H-396.731C-396.731 283.262 -149.712 400.461 3.81712 400.461V-399.539ZM3.26854 -400H2.18288V400H3.26854V-400ZM-397.817 0C-397.817 -282.777 -151.262 -399.539 1.63428 -399.539V400.461C155.135 400.461 402.183 283.286 402.183 0H-397.817ZM1.63428 -399.539C154.531 -399.539 401.086 -282.777 401.086 0H-398.914C-398.914 283.286 -151.867 400.461 1.63428 400.461V-399.539ZM1.08568 -400H0V400H1.08568V-400ZM-400 0V14H400V0H-400ZM0 414H1.08568V-386H0V414ZM401.086 14C401.086 296.753 154.559 413.539 1.63428 413.539V-386.461C-151.895 -386.461 -398.914 -269.262 -398.914 14H401.086ZM1.63428 413.539C-151.29 413.539 -397.817 296.753 -397.817 14H402.183C402.183 -269.262 155.164 -386.461 1.63428 -386.461V413.539ZM2.18288 414H3.26854V-386H2.18288V414ZM403.269 14C403.269 296.73 156.77 413.539 3.81712 413.539V-386.461C-149.74 -386.461 -396.731 -269.239 -396.731 14H403.269ZM3.81712 413.539C-149.108 413.539 -395.634 296.753 -395.634 14H404.366C404.366 -269.262 157.347 -386.461 3.81712 -386.461V413.539ZM4.36572 414H5.45138V-386H4.36572V414ZM405.451 14C405.451 296.753 158.925 413.539 5.99999 413.539V-386.461C-147.53 -386.461 -394.549 -269.262 -394.549 14H405.451ZM5.99999 413.539C-146.924 413.539 -393.451 296.753 -393.451 14H406.549C406.549 -269.262 159.529 -386.461 5.99999 -386.461V413.539ZM6.54859 414H7.63425V-386H6.54859V414ZM407.634 14C407.634 296.759 161.1 413.539 8.18285 413.539V-386.461C-145.339 -386.461 -392.366 -269.268 -392.366 14H407.634ZM8.18285 413.539C-144.77 413.539 -391.269 296.73 -391.269 14H408.731C408.731 -269.239 161.74 -386.461 8.18285 -386.461V413.539ZM8.73143 414H9.81709V-386H8.73143V414ZM409.817 14C409.817 296.753 163.29 413.539 10.3657 413.539V-386.461C-143.164 -386.461 -390.183 -269.262 -390.183 14H409.817ZM10.3657 413.539C-142.544 413.539 -389.086 296.766 -389.086 14H410.914C410.914 -269.275 163.88 -386.461 10.3657 -386.461V413.539ZM10.9143 414H12V-386H10.9143V414ZM412 14V0H-388V14H412ZM12 -400H10.9143V400H12V-400ZM126.063 -370.362C88.5113 -381.65 49.5318 -387.374 10.3657 -387.374V412.626C-28.4158 412.626 -67.0258 406.958 -104.235 395.773L126.063 -370.362ZM10.3657 -387.374C-74.2107 -387.374 -159.935 -360.559 -231.995 -306.066L250.543 332.022C179.063 386.078 94.1038 412.626 10.3657 412.626V-387.374ZM250.536 -306.072C178.489 -360.553 92.7707 -387.374 8.1829 -387.374V412.626C-75.5667 412.626 -160.52 386.071 -231.987 332.028L250.536 -306.072ZM8.1829 -387.374C-76.3901 -387.374 -162.119 -360.561 -234.185 -306.061L248.368 332.017C176.881 386.079 91.9175 412.626 8.1829 412.626V-387.374ZM248.346 -306.077C176.299 -360.556 90.5832 -387.374 6.00006 -387.374V412.626C-77.7448 412.626 -162.695 386.074 -234.163 332.034L248.346 -306.077ZM6.00006 -387.374C-78.5697 -387.374 -164.299 -360.563 -236.368 -306.061L246.185 332.017C174.696 386.081 89.7315 412.626 6.00006 412.626V-387.374ZM246.163 -306.077C174.116 -360.556 88.4003 -387.374 3.81722 -387.374V412.626C-79.9276 412.626 -164.878 386.074 -236.346 332.034L246.163 -306.077ZM3.81722 -387.374C-80.7639 -387.374 -166.487 -360.557 -238.543 -306.066L243.995 332.022C172.518 386.075 87.5601 412.626 3.81722 412.626V-387.374ZM243.98 -306.077C171.933 -360.556 86.2177 -387.374 1.6344 -387.374V412.626C-82.1106 412.626 -167.061 386.074 -238.528 332.034L243.98 -306.077ZM1.6344 -387.374C-37.5333 -387.374 -76.5128 -381.65 -114.063 -370.362L116.235 395.773C79.0275 406.957 40.4175 412.626 1.6344 412.626V-387.374ZM401.086 12.7052V1.29475H-398.914V12.7052H401.086ZM-114.015 384.377C-76.4809 395.654 -37.518 401.374 1.6344 401.374V-398.626C40.4021 -398.626 78.9956 -392.962 116.187 -381.787L-114.015 384.377ZM1.6344 401.374C86.1587 401.374 171.895 374.59 243.994 320.067L-238.542 -318.023C-167.022 -372.108 -82.0516 -398.626 1.6344 -398.626V401.374ZM-238.52 320.084C-166.446 374.58 -80.7254 401.374 3.81722 401.374V-398.626C87.5215 -398.626 172.477 -372.098 243.972 -318.04L-238.52 320.084ZM3.81722 401.374C88.3448 401.374 174.076 374.588 246.169 320.072L-236.352 -318.029C-164.838 -372.106 -79.8721 -398.626 3.81722 -398.626V401.374ZM-236.337 320.084C-164.258 374.583 -78.5362 401.374 6.00006 401.374V-398.626C89.698 -398.626 174.655 -372.102 246.155 -318.04L-236.337 320.084ZM6.00006 401.374C90.5244 401.374 176.257 374.59 248.352 320.072L-234.169 -318.029C-162.653 -372.108 -77.6861 -398.626 6.00006 -398.626V401.374ZM-234.155 320.084C-162.074 374.584 -76.3517 401.374 8.1829 401.374V-398.626C91.8793 -398.626 176.836 -372.102 248.338 -318.04L-234.155 320.084ZM8.1829 401.374C92.712 401.374 178.447 374.587 250.542 320.067L-231.994 -318.023C-160.477 -372.105 -75.508 -398.626 8.1829 -398.626V401.374ZM-231.972 320.084C-159.892 374.584 -74.1689 401.374 10.3657 401.374V-398.626C94.0621 -398.626 179.019 -372.102 250.52 -318.04L-231.972 320.084ZM10.3657 401.374C49.4827 401.374 88.4644 395.664 126.063 384.362L-104.235 -381.773C-66.9789 -392.972 -28.3667 -398.626 10.3657 -398.626V401.374ZM-389.086 1.29475V12.7052H410.914V1.29475H-389.086Z" fill="#78849E" mask="url(#path-1-inside-1_121_222)"/>
<g filter="url(#filter0_d_121_222)">
<mask id="path-3-inside-2_121_222" fill="white">
<path d="M6.75 2.21045H3V2.94729H6.75V2.21045Z"/>
</mask>
<path d="M6.75 2.21045H3V2.94729H6.75V2.21045Z" fill="#78849E"/>
<path d="M6.75 2.21045H406.75V-397.79H6.75V2.21045ZM3 2.21045V-397.79H-397V2.21045H3ZM3 2.94729H-397V402.947H3V2.94729ZM6.75 2.94729V402.947H406.75V2.94729H6.75ZM6.75 -397.79H3V402.21H6.75V-397.79ZM-397 2.21045V2.94729H403V2.21045H-397ZM3 402.947H6.75V-397.053H3V402.947ZM406.75 2.94729V2.21045H-393.25V2.94729H406.75Z" fill="#78849E" mask="url(#path-3-inside-2_121_222)"/>
</g>
<g filter="url(#filter1_d_121_222)">
<mask id="path-5-inside-3_121_222" fill="white">
<path d="M8.3956 2.20996H7.55078V2.93079H8.3956V2.20996Z"/>
</mask>
<path d="M8.3956 2.20996H7.55078V2.93079H8.3956V2.20996Z" fill="#78849E"/>
<path d="M8.3956 2.20996H408.396V-397.79H8.3956V2.20996ZM7.55078 2.20996V-397.79H-392.449V2.20996H7.55078ZM7.55078 2.93079H-392.449V402.931H7.55078V2.93079ZM8.3956 2.93079V402.931H408.396V2.93079H8.3956ZM8.3956 -397.79H7.55078V402.21H8.3956V-397.79ZM-392.449 2.20996V2.93079H407.551V2.20996H-392.449ZM7.55078 402.931H8.3956V-397.069H7.55078V402.931ZM408.396 2.93079V2.20996H-391.604V2.93079H408.396Z" fill="#78849E" mask="url(#path-5-inside-3_121_222)"/>
</g>
<g filter="url(#filter2_d_121_222)">
<mask id="path-7-inside-4_121_222" fill="white">
<path d="M6.75 4.42114H3V5.15798H6.75V4.42114Z"/>
</mask>
<path d="M6.75 4.42114H3V5.15798H6.75V4.42114Z" fill="#78849E"/>
<path d="M6.75 4.42114H406.75V-395.579H6.75V4.42114ZM3 4.42114V-395.579H-397V4.42114H3ZM3 5.15798H-397V405.158H3V5.15798ZM6.75 5.15798V405.158H406.75V5.15798H6.75ZM6.75 -395.579H3V404.421H6.75V-395.579ZM-397 4.42114V5.15798H403V4.42114H-397ZM3 405.158H6.75V-394.842H3V405.158ZM406.75 5.15798V4.42114H-393.25V5.15798H406.75Z" fill="#78849E" mask="url(#path-7-inside-4_121_222)"/>
</g>
<g filter="url(#filter3_d_121_222)">
<mask id="path-9-inside-5_121_222" fill="white">
<path d="M8.3956 4.6665H7.55078V5.38733H8.3956V4.6665Z"/>
</mask>
<path d="M8.3956 4.6665H7.55078V5.38733H8.3956V4.6665Z" fill="#78849E"/>
<path d="M8.3956 4.6665H408.396V-395.333H8.3956V4.6665ZM7.55078 4.6665V-395.333H-392.449V4.6665H7.55078ZM7.55078 5.38733H-392.449V405.387H7.55078V5.38733ZM8.3956 5.38733V405.387H408.396V5.38733H8.3956ZM8.3956 -395.333H7.55078V404.667H8.3956V-395.333ZM-392.449 4.6665V5.38733H407.551V4.6665H-392.449ZM7.55078 405.387H8.3956V-394.613H7.55078V405.387ZM408.396 5.38733V4.6665H-391.604V5.38733H408.396Z" fill="#78849E" mask="url(#path-9-inside-5_121_222)"/>
</g>
<g filter="url(#filter4_d_121_222)">
<mask id="path-11-inside-6_121_222" fill="white">
<path d="M6.89569 7.17993H4.23584V7.90075H6.89569V7.17993Z"/>
</mask>
<path d="M6.89569 7.17993H4.23584V7.90075H6.89569V7.17993Z" fill="#78849E"/>
<path d="M6.89569 7.17993H406.896V-392.82H6.89569V7.17993ZM4.23584 7.17993V-392.82H-395.764V7.17993H4.23584ZM4.23584 7.90075H-395.764V407.901H4.23584V7.90075ZM6.89569 7.90075V407.901H406.896V7.90075H6.89569ZM6.89569 -392.82H4.23584V407.18H6.89569V-392.82ZM-395.764 7.17993V7.90075H404.236V7.17993H-395.764ZM4.23584 407.901H6.89569V-392.099H4.23584V407.901ZM406.896 7.90075V7.17993H-393.104V7.90075H406.896Z" fill="#78849E" mask="url(#path-11-inside-6_121_222)"/>
</g>
</g>
<defs>
<filter id="filter0_d_121_222" x="-1" y="2.21045" width="11.75" height="8.73682" filterUnits="userSpaceOnUse" color-interpolation-filters="sRGB">
<feFlood flood-opacity="0" result="BackgroundImageFix"/>
<feColorMatrix in="SourceAlpha" type="matrix" values="0 0 0 0 0 0 0 0 0 0 0 0 0 0 0 0 0 0 127 0" result="hardAlpha"/>
<feOffset dy="4"/>
<feGaussianBlur stdDeviation="2"/>
<feComposite in2="hardAlpha" operator="out"/>
<feColorMatrix type="matrix" values="0 0 0 0 0 0 0 0 0 0 0 0 0 0 0 0 0 0 0.25 0"/>
<feBlend mode="normal" in2="BackgroundImageFix" result="effect1_dropShadow_121_222"/>
<feBlend mode="normal" in="SourceGraphic" in2="effect1_dropShadow_121_222" result="shape"/>
</filter>
<filter id="filter1_d_121_222" x="3.55078" y="2.20996" width="8.84473" height="8.7207" filterUnits="userSpaceOnUse" color-interpolation-filters="sRGB">
<feFlood flood-opacity="0" result="BackgroundImageFix"/>
<feColorMatrix in="SourceAlpha" type="matrix" values="0 0 0 0 0 0 0 0 0 0 0 0 0 0 0 0 0 0 127 0" result="hardAlpha"/>
<feOffset dy="4"/>
<feGaussianBlur stdDeviation="2"/>
<feComposite in2="hardAlpha" operator="out"/>
<feColorMatrix type="matrix" values="0 0 0 0 0 0 0 0 0 0 0 0 0 0 0 0 0 0 0.25 0"/>
<feBlend mode="normal" in2="BackgroundImageFix" result="effect1_dropShadow_121_222"/>
<feBlend mode="normal" in="SourceGraphic" in2="effect1_dropShadow_121_222" result="shape"/>
</filter>
<filter id="filter2_d_121_222" x="-1" y="4.42114" width="11.75" height="8.73682" filterUnits="userSpaceOnUse" color-interpolation-filters="sRGB">
<feFlood flood-opacity="0" result="BackgroundImageFix"/>
<feColorMatrix in="SourceAlpha" type="matrix" values="0 0 0 0 0 0 0 0 0 0 0 0 0 0 0 0 0 0 127 0" result="hardAlpha"/>
<feOffset dy="4"/>
<feGaussianBlur stdDeviation="2"/>
<feComposite in2="hardAlpha" operator="out"/>
<feColorMatrix type="matrix" values="0 0 0 0 0 0 0 0 0 0 0 0 0 0 0 0 0 0 0.25 0"/>
<feBlend mode="normal" in2="BackgroundImageFix" result="effect1_dropShadow_121_222"/>
<feBlend mode="normal" in="SourceGraphic" in2="effect1_dropShadow_121_222" result="shape"/>
</filter>
<filter id="filter3_d_121_222" x="3.55078" y="4.6665" width="8.84473" height="8.7207" filterUnits="userSpaceOnUse" color-interpolation-filters="sRGB">
<feFlood flood-opacity="0" result="BackgroundImageFix"/>
<feColorMatrix in="SourceAlpha" type="matrix" values="0 0 0 0 0 0 0 0 0 0 0 0 0 0 0 0 0 0 127 0" result="hardAlpha"/>
<feOffset dy="4"/>
<feGaussianBlur stdDeviation="2"/>
<feComposite in2="hardAlpha" operator="out"/>
<feColorMatrix type="matrix" values="0 0 0 0 0 0 0 0 0 0 0 0 0 0 0 0 0 0 0.25 0"/>
<feBlend mode="normal" in2="BackgroundImageFix" result="effect1_dropShadow_121_222"/>
<feBlend mode="normal" in="SourceGraphic" in2="effect1_dropShadow_121_222" result="shape"/>
</filter>
<filter id="filter4_d_121_222" x="0.23584" y="7.17993" width="10.6597" height="8.7207" filterUnits="userSpaceOnUse" color-interpolation-filters="sRGB">
<feFlood flood-opacity="0" result="BackgroundImageFix"/>
<feColorMatrix in="SourceAlpha" type="matrix" values="0 0 0 0 0 0 0 0 0 0 0 0 0 0 0 0 0 0 127 0" result="hardAlpha"/>
<feOffset dy="4"/>
<feGaussianBlur stdDeviation="2"/>
<feComposite in2="hardAlpha" operator="out"/>
<feColorMatrix type="matrix" values="0 0 0 0 0 0 0 0 0 0 0 0 0 0 0 0 0 0 0.25 0"/>
<feBlend mode="normal" in2="BackgroundImageFix" result="effect1_dropShadow_121_222"/>
<feBlend mode="normal" in="SourceGraphic" in2="effect1_dropShadow_121_222" result="shape"/>
</filter>
<clipPath id="clip0_121_222">
<rect width="12" height="14" fill="white"/>
</clipPath>
</defs>
</svg>
