<svg width="18" height="19" viewBox="0 0 18 19" fill="none" xmlns="http://www.w3.org/2000/svg">
<g clip-path="url(#clip0_101_2)">
<path d="M8.636 3.69473e-06C8.82801 -5.01028e-05 9.01453 0.0640028 9.166 0.182004L16.938 6.227C17.0418 6.30784 17.1257 6.41129 17.1834 6.52948C17.2411 6.64767 17.2711 6.77748 17.271 6.909V16.409C17.2702 17.0958 16.9971 17.7542 16.5116 18.2399C16.0261 18.7256 15.3678 18.9989 14.681 19H2.591C1.90389 18.9992 1.24517 18.7258 0.759411 18.2399C0.273647 17.7539 0.000529414 17.0951 1.07953e-07 16.408V6.908C-6.56355e-05 6.77648 0.0298977 6.64667 0.0876063 6.52848C0.145315 6.41029 0.229245 6.30684 0.333 6.226L8.105 0.181004C8.25687 0.0631499 8.44377 -0.000558931 8.636 3.69473e-06V3.69473e-06ZM15.545 7.331L8.636 1.958L1.727 7.331V16.408C1.72727 16.6371 1.81838 16.8567 1.98035 17.0187C2.14233 17.1806 2.36193 17.2717 2.591 17.272H14.681C14.9101 17.2717 15.1297 17.1806 15.2916 17.0187C15.4536 16.8567 15.5447 16.6371 15.545 16.408V7.331Z" fill="#78849E"/>
<path d="M11.226 18.999C10.997 18.999 10.7774 18.9081 10.6154 18.7463C10.4534 18.5845 10.3623 18.365 10.362 18.136V10.363H6.908V18.136C6.91194 18.2519 6.89253 18.3673 6.85091 18.4756C6.80929 18.5838 6.74632 18.6825 6.66574 18.7659C6.58517 18.8492 6.48865 18.9155 6.38192 18.9608C6.27519 19.0061 6.16044 19.0294 6.0445 19.0294C5.92856 19.0294 5.81381 19.0061 5.70708 18.9608C5.60035 18.9155 5.50383 18.8492 5.42326 18.7659C5.34268 18.6825 5.27971 18.5838 5.23809 18.4756C5.19647 18.3673 5.17706 18.2519 5.181 18.136V9.5C5.181 9.38654 5.20335 9.27419 5.24677 9.16936C5.29019 9.06454 5.35383 8.96929 5.43406 8.88906C5.51429 8.80883 5.60954 8.74519 5.71436 8.70177C5.81919 8.65835 5.93154 8.636 6.045 8.636H11.226C11.3395 8.636 11.4518 8.65835 11.5566 8.70177C11.6615 8.74519 11.7567 8.80883 11.8369 8.88906C11.9172 8.96929 11.9808 9.06454 12.0242 9.16936C12.0677 9.27419 12.09 9.38654 12.09 9.5V18.136C12.0897 18.365 11.9986 18.5845 11.8366 18.7463C11.6746 18.9081 11.455 18.999 11.226 18.999V18.999Z" fill="#78849E"/>
</g>
<defs>
<clipPath id="clip0_101_2">
<rect width="17.271" height="18.999" fill="white"/>
</clipPath>
</defs>
</svg>
