<svg xmlns="http://www.w3.org/2000/svg" width="14.497" height="14.497" viewBox="0 0 14.497 14.497">
  <path id="ico-contact" d="M10.6,3h.418A6.872,6.872,0,0,1,17.5,9.484q0,.02,0,.04v.362a6.889,6.889,0,0,1-6.886,6.886h-.016a6.836,6.836,0,0,1-2.786-.6L3.954,17.46a.725.725,0,0,1-.917-.917l1.285-3.855A6.889,6.889,0,0,1,10.6,3Zm.358,1.45H10.6a5.375,5.375,0,0,0-2.412.575h0A5.436,5.436,0,0,0,5.175,9.886a5.376,5.376,0,0,0,.575,2.427.725.725,0,0,1,.041.556l-.919,2.756,2.756-.919a.725.725,0,0,1,.556.041,5.375,5.375,0,0,0,2.412.575h.014a5.436,5.436,0,0,0,4.862-3.006v0a5.375,5.375,0,0,0,.575-2.426V9.544A5.415,5.415,0,0,0,10.953,4.45Z" transform="translate(-3 -3)" fill="#78849e"/>
</svg>
