<svg xmlns="http://www.w3.org/2000/svg" width="17.615" height="14.679" viewBox="0 0 17.615 14.679">
  <g id="Buildings" transform="translate(-1.462 -3.334)">
    <path id="Path_1963" data-name="Path 1963" d="M18.49,27.508H2.049a.587.587,0,0,1,0-1.174H18.49a.587.587,0,0,1,0,1.174Z" transform="translate(0 -9.495)" fill="#78849e"/>
    <path id="Path_1964" data-name="Path 1964" d="M12.27,18.013a.587.587,0,0,1-.587-.587V4.508H4.636V17.426a.587.587,0,1,1-1.174,0V4.508A1.174,1.174,0,0,1,4.636,3.334h7.046a1.174,1.174,0,0,1,1.174,1.174V17.426A.587.587,0,0,1,12.27,18.013Z" transform="translate(-0.826)" fill="#78849e"/>
    <path id="Path_1965" data-name="Path 1965" d="M23.921,21.316a.587.587,0,0,1-.587-.587v-8.22H18.049a.587.587,0,0,1,0-1.174h5.285a1.174,1.174,0,0,1,1.174,1.174v8.22A.587.587,0,0,1,23.921,21.316Z" transform="translate(-6.605 -3.303)" fill="#78849e"/>
    <path id="Path_1966" data-name="Path 1966" d="M10.4,9.508H8.049a.587.587,0,1,1,0-1.174H10.4a.587.587,0,1,1,0,1.174Z" transform="translate(-2.477 -2.064)" fill="#78849e"/>
    <path id="Path_1967" data-name="Path 1967" d="M12.4,17.508H10.049a.587.587,0,0,1,0-1.174H12.4a.587.587,0,0,1,0,1.174Z" transform="translate(-3.303 -5.367)" fill="#78849e"/>
    <path id="Path_1968" data-name="Path 1968" d="M10.4,22.508H8.049a.587.587,0,0,1,0-1.174H10.4a.587.587,0,1,1,0,1.174Z" transform="translate(-2.477 -7.431)" fill="#78849e"/>
    <path id="Path_1969" data-name="Path 1969" d="M23.223,22.508H22.049a.587.587,0,0,1,0-1.174h1.174a.587.587,0,1,1,0,1.174Z" transform="translate(-8.256 -7.431)" fill="#78849e"/>
    <path id="Path_1970" data-name="Path 1970" d="M23.223,17.508H22.049a.587.587,0,0,1,0-1.174h1.174a.587.587,0,1,1,0,1.174Z" transform="translate(-8.256 -5.367)" fill="#78849e"/>
  </g>
</svg>
