<svg xmlns="http://www.w3.org/2000/svg" width="20.178" height="20.178" viewBox="0 0 20.178 20.178">
  <g id="ico-forgot" transform="translate(-853 -497.411)">
    <path id="Path_78" data-name="Path 78" d="M11.589,1.5a10.091,10.091,0,0,1,3.927,19.384A10.091,10.091,0,0,1,7.661,2.293,10.026,10.026,0,0,1,11.589,1.5Zm0,18.343a8.254,8.254,0,1,0-5.837-2.418A8.2,8.2,0,0,0,11.589,19.843Z" transform="translate(851.5 495.911)" fill="#36c7e9"/>
    <path id="Path_79" data-name="Path 79" d="M15.647,16.334a.917.917,0,0,1-.29-1.788c.55-.186,2.124-.933,2.124-1.881a1.834,1.834,0,0,0-3.565-.613.917.917,0,0,1-1.73-.609,3.669,3.669,0,0,1,7.129,1.223,3.39,3.39,0,0,1-1.784,2.825,7.441,7.441,0,0,1-1.594.795A.917.917,0,0,1,15.647,16.334Z" transform="translate(847.368 493)" fill="#36c7e9"/>
    <circle id="Ellipse_61" data-name="Ellipse 61" cx="0.917" cy="0.917" r="0.917" transform="translate(862.172 511.169)" fill="#36c7e9"/>
  </g>
</svg>
