<svg xmlns="http://www.w3.org/2000/svg" width="17.645" height="14.756" viewBox="0 0 17.645 14.756">
  <path id="ico-worker" d="M13.315,12.438v1.446a.875.875,0,0,1-.873.872h0l0-.15v.15a.874.874,0,0,1-.873-.873V12.438A2.024,2.024,0,0,0,9.55,10.42H3.764a2.02,2.02,0,0,0-2.017,2.018v1.446a.874.874,0,0,1-1.747,0V12.438A3.77,3.77,0,0,1,3.764,8.673H9.55a3.777,3.777,0,0,1,3.765,3.765M2.892,3.765A3.764,3.764,0,1,1,6.656,7.53,3.773,3.773,0,0,1,2.892,3.765M6.656,5.783A2.018,2.018,0,1,0,4.638,3.765,2.02,2.02,0,0,0,6.656,5.783M14.82,8.792a.873.873,0,0,0-.433,1.692A2.016,2.016,0,0,1,15.9,12.438v1.445a.873.873,0,1,0,1.745,0V12.438A3.763,3.763,0,0,0,14.82,8.792m-.586-6.937a3.735,3.735,0,0,0-2.3-1.73L11.882.111a.873.873,0,0,0-.384,1.7,2.017,2.017,0,0,1,0,3.908.878.878,0,0,0-.655.844.876.876,0,0,0,.872.875.941.941,0,0,0,.217-.027,3.764,3.764,0,0,0,2.3-5.56" transform="translate(0 -0.001)" fill="#8d9cbc"/>
</svg>
