<svg width="16" height="17" viewBox="0 0 16 17" fill="none" xmlns="http://www.w3.org/2000/svg">
<path d="M7.57448 12.317H10.6579C11.018 12.317 11.3061 12.0347 11.3061 11.6819C11.3061 11.3291 11.018 11.0468 10.6579 11.0468H7.57448C7.21441 11.0468 6.92636 11.3291 6.92636 11.6819C6.92636 12.0347 7.21441 12.317 7.57448 12.317Z" fill="#78839D"/>
<path d="M6.92636 13.7604C6.92636 14.1132 7.21441 14.3955 7.57448 14.3955H12.7594C13.1195 14.3955 13.4075 14.1132 13.4075 13.7604C13.4075 13.4075 13.1195 13.1253 12.7594 13.1253H7.57448C7.21441 13.1253 6.92636 13.4075 6.92636 13.7604V13.7604Z" fill="#78839D"/>
<path d="M15.9869 7.35811C15.9869 7.35811 15.9738 7.30679 15.9607 7.28113C15.9607 7.2683 15.9542 7.25547 15.9476 7.24264C15.9345 7.21698 15.9214 7.19132 15.9018 7.15924C15.9018 7.15283 15.8953 7.14 15.8887 7.13358C15.8625 7.10151 15.8363 7.06943 15.8101 7.03736L11.9214 3.22679C11.9214 3.22679 11.856 3.16906 11.8232 3.14981C11.8167 3.14981 11.8036 3.13698 11.7971 3.13698C11.7709 3.12415 11.7447 3.10491 11.7119 3.09208C11.6989 3.09208 11.6858 3.08566 11.6727 3.07925C11.6465 3.07283 11.6203 3.06 11.5941 3.05358C11.5548 3.04717 11.509 3.04075 11.4632 3.04075H9.73486C9.14566 1.2766 7.45663 0 5.4599 0C2.97872 0 0.962357 1.97585 0.962357 4.40717C0.962357 5.36943 1.27005 6.28038 1.85925 7.04377L0.189853 8.68604C0.0720131 8.80151 0 8.96189 0 9.12868C0 9.29547 0.0654664 9.45585 0.189853 9.57132C0.307692 9.68679 0.471358 9.75736 0.641571 9.75736C0.811784 9.75736 0.97545 9.69321 1.09329 9.57132L2.76923 7.92906C3.24714 8.28189 3.77741 8.53208 4.34043 8.67321V15.0947C4.34043 16.1468 5.21113 17 6.28478 17H14.0556C15.1293 17 16 16.1468 16 15.0947V7.48C16 7.43509 16 7.3966 15.9869 7.3517V7.35811ZM12.1113 5.20906L13.7872 6.85132H12.1113V5.20906ZM3.18822 6.63962C3.18822 6.63962 3.17512 6.62679 3.16858 6.62038C2.57283 6.02377 2.2455 5.24113 2.2455 4.41358C2.2455 2.67509 3.69231 1.25736 5.46645 1.25736C7.24059 1.25736 8.6874 2.67509 8.6874 4.41358C8.6874 6.15208 7.24059 7.56981 5.46645 7.56981C4.61538 7.56981 3.81669 7.24906 3.2144 6.66528L3.19476 6.63962H3.18822ZM14.7038 15.1011C14.7038 15.454 14.4157 15.7362 14.0556 15.7362H6.27823C5.91817 15.7362 5.63011 15.454 5.63011 15.1011V8.80792C8.03273 8.71811 9.95745 6.78075 9.95745 4.40717C9.95745 4.37509 9.95745 4.34302 9.95745 4.31094H10.8151V7.48641C10.8151 7.83925 11.1031 8.12151 11.4632 8.12151H14.7038V15.1011V15.1011Z" fill="#78839D"/>
</svg>
