<svg xmlns="http://www.w3.org/2000/svg" width="17.662" height="17.667" viewBox="0 0 17.662 17.667">
  <path id="ico-calendar" d="M15.013,1.609H13.246V.8A.887.887,0,0,0,11.48.8v.806h-5.3V.8A.887.887,0,0,0,4.416.8v.806H2.649A2.54,2.54,0,0,0,0,4.017v11.24a2.54,2.54,0,0,0,2.649,2.408H15.013a2.54,2.54,0,0,0,2.649-2.408V4.017a2.54,2.54,0,0,0-2.649-2.408M2.649,3.217H4.416v.8a.846.846,0,0,0,.883.8.846.846,0,0,0,.883-.8v-.8h5.3v.8a.887.887,0,0,0,1.766,0v-.8h1.767a.847.847,0,0,1,.883.8V6.426H1.766V4.017a.847.847,0,0,1,.883-.8M15.013,16.06l-12.364,0a.847.847,0,0,1-.883-.8V8.032H15.9V15.26a.847.847,0,0,1-.883.8" fill="#8d9cbc"/>
</svg>
