<svg xmlns="http://www.w3.org/2000/svg" width="16.173" height="13.225" viewBox="0 0 16.173 13.225">
  <path id="ico-messages" d="M16.154,6.536a.724.724,0,0,0-.054-.229c0-.007,0-.014-.005-.021L13.56,1.224A2.191,2.191,0,0,0,11.586,0h-7A2.191,2.191,0,0,0,2.613,1.222L.078,6.286c0,.007,0,.015-.005.021A.728.728,0,0,0,0,6.6c0,.006,0,.011,0,.017v4.41a2.208,2.208,0,0,0,2.2,2.2H13.973a2.208,2.208,0,0,0,2.2-2.2V6.615a.7.7,0,0,0-.019-.079M3.925,1.878a.73.73,0,0,1,.658-.408h7a.732.732,0,0,1,.659.41l2,4H11.025a.733.733,0,0,0-.612.327L9.161,8.08H7.008L5.757,6.207a.733.733,0,0,0-.612-.327H1.924Zm10.04,9.882H2.2a.736.736,0,0,1-.735-.735V7.35H4.752L6,9.228a.737.737,0,0,0,.612.327h2.94a.735.735,0,0,0,.611-.332l1.252-1.878H14.7v3.68a.736.736,0,0,1-.735.735" fill="#78849e"/>
</svg>
