<svg xmlns="http://www.w3.org/2000/svg" width="19.198" height="19.198" viewBox="0 0 19.198 19.198">
  <path id="ico-clock" d="M16.389,2.813A9.535,9.535,0,0,0,9.6,0H9.578A9.47,9.47,0,0,0,5.862.755,9.6,9.6,0,1,0,16.389,2.813m.878,6.78A7.672,7.672,0,0,1,9.6,17.269H9.572A7.672,7.672,0,0,1,9.591,1.926h0a7.682,7.682,0,0,1,7.672,7.667M13.91,11.759a.971.971,0,0,1-.271.33h.226l-.371.092a.962.962,0,0,1-.445.108h-.813l.395-.1-.008,0L9.169,10.461A.959.959,0,0,1,8.638,9.6V4.417a.963.963,0,1,1,1.925,0V9l2.918,1.462a.967.967,0,0,1,.429,1.3" fill="#8d9cbc"/>
</svg>
