<svg xmlns="http://www.w3.org/2000/svg" width="12.497" height="15.274" viewBox="0 0 12.497 15.274">
  <g id="ico-invoice" transform="translate(-4.5 -1.5)">
    <path id="Path_17" data-name="Path 17" d="M6.583,1.5h5.554a.694.694,0,0,1,.491.2l4.166,4.166a.694.694,0,0,1,.2.491v8.331a2.085,2.085,0,0,1-2.083,2.083H6.583A2.085,2.085,0,0,1,4.5,14.691V3.583A2.085,2.085,0,0,1,6.583,1.5Zm5.267,1.389H6.583a.7.7,0,0,0-.694.694V14.691a.7.7,0,0,0,.694.694h8.331a.7.7,0,0,0,.694-.694V6.647Z" transform="translate(0)" fill="#78849e"/>
    <path id="Path_18" data-name="Path 18" d="M24.36,7.054H20.194A.694.694,0,0,1,19.5,6.36V2.194a.694.694,0,1,1,1.389,0V5.666H24.36a.694.694,0,0,1,0,1.389Z" transform="translate(-8.057)" fill="#78849e"/>
    <path id="Path_19" data-name="Path 19" d="M16.748,19.389H11.194a.694.694,0,1,1,0-1.389h5.554a.694.694,0,1,1,0,1.389Z" transform="translate(-3.223 -8.863)" fill="#78849e"/>
    <path id="Path_20" data-name="Path 20" d="M16.748,25.389H11.194a.694.694,0,1,1,0-1.389h5.554a.694.694,0,1,1,0,1.389Z" transform="translate(-3.223 -12.086)" fill="#78849e"/>
    <path id="Path_21" data-name="Path 21" d="M12.583,13.389H11.194a.694.694,0,1,1,0-1.389h1.389a.694.694,0,0,1,0,1.389Z" transform="translate(-3.223 -5.64)" fill="#78849e"/>
  </g>
</svg>
