<svg xmlns="http://www.w3.org/2000/svg" width="16.519" height="13.84" viewBox="0 0 16.519 13.84">
  <path id="ico-employee" d="M12.463,11.636V12.99a.827.827,0,0,1-1.653,0V11.636A1.881,1.881,0,0,0,8.933,9.759h-5.4a1.879,1.879,0,0,0-1.877,1.877V12.99a.826.826,0,0,1-.8.85H.826a.826.826,0,0,1-.825-.8V11.636A3.533,3.533,0,0,1,3.529,8.108h5.4a3.538,3.538,0,0,1,3.529,3.528M2.7,3.528A3.529,3.529,0,1,1,6.231,7.057,3.539,3.539,0,0,1,2.7,3.528m1.652,0A1.883,1.883,0,0,0,6.231,5.406h0a1.878,1.878,0,0,0,0-3.755h0A1.876,1.876,0,0,0,4.355,3.527m9.516,4.692a.826.826,0,0,0-.411,1.6,1.876,1.876,0,0,1,1.4,1.819v1.351a.827.827,0,0,0,.794.825H15.7a.826.826,0,0,0,.822-.83V11.633a3.531,3.531,0,0,0-2.648-3.414m-.544-6.486A3.492,3.492,0,0,0,11.175.117L11.119.1a.826.826,0,0,0-.362,1.611,1.878,1.878,0,0,1,0,3.638.825.825,0,0,0,.2,1.625.835.835,0,0,0,.2-.026,3.528,3.528,0,0,0,2.161-5.217" fill="#78849e"/>
</svg>
