<svg xmlns="http://www.w3.org/2000/svg" width="15.462" height="14.173" viewBox="0 0 15.462 14.173">
  <g id="ico-maps" transform="translate(0 -1.5)">
    <path id="Path_14" data-name="Path 14" d="M14.818,1.5a.644.644,0,0,1,.644.644V12.452a.644.644,0,0,1-.325.559l-4.51,2.577a.644.644,0,0,1-.608.017L5.174,13.183.964,15.588A.644.644,0,0,1,0,15.029V4.721a.644.644,0,0,1,.325-.559l4.51-2.577a.644.644,0,0,1,.608-.017l4.846,2.423L14.5,1.585A.644.644,0,0,1,14.818,1.5Zm-4.51,3.865A.644.644,0,0,1,10.02,5.3L5.174,2.875,1.288,5.1v8.824l3.546-2.026a.644.644,0,0,1,.608-.017L10.288,14.3l3.886-2.22V3.254L10.627,5.281A.644.644,0,0,1,10.308,5.365Z" transform="translate(0)" fill="#78849e"/>
    <path id="Path_15" data-name="Path 15" d="M11.144,13.1a.644.644,0,0,1-.644-.644V2.144a.644.644,0,0,1,1.288,0V12.452A.644.644,0,0,1,11.144,13.1Z" transform="translate(-5.99)" fill="#78849e"/>
    <path id="Path_16" data-name="Path 16" d="M23.144,19.1a.644.644,0,0,1-.644-.644V8.144a.644.644,0,0,1,1.288,0V18.452A.644.644,0,0,1,23.144,19.1Z" transform="translate(-12.836 -3.423)" fill="#78849e"/>
  </g>
</svg>
