<svg width="16" height="14" viewBox="0 0 16 14" fill="none" xmlns="http://www.w3.org/2000/svg">
<path d="M11.0416 0H4.95566C3.98632 0 3.19873 0.77462 3.19873 1.728V10.0051C3.19873 10.9584 3.98632 11.7331 4.95566 11.7331H11.0416C12.0109 11.7331 12.7985 10.9584 12.7985 10.0051V1.728C12.7985 0.77462 12.0109 0 11.0416 0ZM11.7135 10.0105C11.7135 10.3734 11.4106 10.6713 11.0416 10.6713H4.95566C4.58665 10.6713 4.28373 10.3734 4.28373 10.0105V1.728C4.28373 1.36506 4.58665 1.06713 4.95566 1.06713H11.0416C11.4106 1.06713 11.7135 1.36506 11.7135 1.728V10.0051V10.0105Z" fill="#78839D"/>
<path d="M6.16886 12.194C6.05343 12.1162 5.91702 12.0829 5.7806 12.1162L2.7112 12.7663C2.64299 12.7774 2.57478 12.7663 2.51707 12.7218C2.45935 12.6774 2.42262 12.6163 2.41213 12.544L1.03746 2.76009C1.01647 2.61564 1.11091 2.48785 1.27881 2.44896L2.18651 2.13227C2.45935 2.03782 2.60626 1.72669 2.51707 1.44334C2.47509 1.30444 2.38065 1.18777 2.25997 1.12665C2.13405 1.05998 1.99763 1.04887 1.86646 1.09332L1.00598 1.39334C0.344875 1.5489 -0.0853654 2.22117 0.0143245 2.92121L1.389 12.6996C1.44146 13.0719 1.63035 13.3996 1.92417 13.6163C2.14454 13.7775 2.39639 13.8663 2.65873 13.8663C2.74268 13.8663 2.83188 13.8552 2.91582 13.8386L5.98522 13.1885C6.26331 13.1274 6.44695 12.8385 6.38923 12.544C6.363 12.3996 6.28429 12.2774 6.16886 12.194V12.194Z" fill="#78839D"/>
<path d="M14.8763 1.40495L13.8304 1.0937C13.6775 1.04923 13.5124 1.06035 13.3717 1.12149C13.2249 1.18819 13.1209 1.29935 13.0659 1.4383C12.9619 1.72733 13.1332 2.03303 13.4512 2.12751L14.5582 2.45545C14.705 2.48879 14.809 2.61663 14.7845 2.75559L13.1821 12.5435C13.1699 12.6158 13.127 12.6825 13.0598 12.7214C12.9925 12.7658 12.913 12.7769 12.8335 12.7658L9.25554 12.1155C9.09652 12.0877 8.9375 12.1155 8.80294 12.1933C8.66839 12.2767 8.57665 12.399 8.54607 12.5435C8.47879 12.8381 8.69285 13.1271 9.01701 13.1882L12.5949 13.8386C12.6928 13.8552 12.7968 13.8663 12.8946 13.8663C13.2004 13.8663 13.5001 13.7774 13.757 13.6162C14.0934 13.3995 14.3197 13.0771 14.3809 12.6991L15.9833 2.91121C16.0995 2.222 15.6041 1.54391 14.8824 1.39384L14.8763 1.40495Z" fill="#78839D"/>
<path d="M8.14711 5.33834H7.96282V4.35952H8.82842C9.10206 4.35952 9.32544 4.12078 9.32544 3.82833C9.32544 3.53588 9.10206 3.29714 8.82842 3.29714H7.96282V2.66449C7.96282 2.37204 7.73944 2.1333 7.4658 2.1333C7.19216 2.1333 6.96878 2.37204 6.96878 2.66449V3.29714H6.78449C5.98591 3.29714 5.3381 3.98948 5.3381 4.84893C5.3381 5.70838 5.98591 6.40072 6.78449 6.40072H6.96878V7.37357H5.82954C5.5559 7.37357 5.33252 7.61231 5.33252 7.90476C5.33252 8.19721 5.5559 8.43595 5.82954 8.43595H6.96878V9.0686C6.96878 9.36105 7.19216 9.59979 7.4658 9.59979C7.73944 9.59979 7.96282 9.36105 7.96282 9.0686V8.43595H8.14711C8.9457 8.43595 9.59909 7.74361 9.59909 6.88416C9.59909 6.02471 8.95128 5.33834 8.14711 5.33834V5.33834ZM8.60504 6.88416C8.60504 7.15274 8.39842 7.37357 8.14711 7.37357H7.96282V6.40072H8.14711C8.39842 6.40072 8.60504 6.62155 8.60504 6.89013V6.88416ZM6.97437 4.35952V5.33834H6.79008C6.53877 5.33834 6.33215 5.11751 6.33215 4.84893C6.33215 4.58035 6.53877 4.35952 6.79008 4.35952H6.97437Z" fill="#78839D"/>
</svg>
