<svg xmlns="http://www.w3.org/2000/svg" width="164.844" height="62.689" viewBox="0 0 164.844 62.689">
  <g id="logo" transform="translate(-192.427 -73.17)">
    <path id="Path_28" data-name="Path 28" d="M187.849,114.7q-3.232,0-3.232-3.333V84.1h-9.846q-2.778,0-2.777-2.726,0-2.676,2.777-2.676h26.155q2.777,0,2.777,2.676,0,2.727-2.777,2.726H191.08v27.267q0,3.333-3.231,3.333" transform="translate(87.321 11.854)" fill="#231f20"/>
    <path id="Path_29" data-name="Path 29" d="M232.313,114.3a2.744,2.744,0,0,1-2.525-1.212,2.931,2.931,0,0,1,.051-2.928l13.33-29.539a4.817,4.817,0,0,1,1.591-2.1,3.742,3.742,0,0,1,2.145-.631,3.662,3.662,0,0,1,2.1.631,4.839,4.839,0,0,1,1.591,2.1l13.38,29.539a3.083,3.083,0,0,1,.1,2.954,2.594,2.594,0,0,1-2.424,1.186,3.236,3.236,0,0,1-2.2-.682,5.742,5.742,0,0,1-1.389-2.1l-2.524-5.857H238.17l-2.474,5.857a6.585,6.585,0,0,1-1.363,2.121,2.867,2.867,0,0,1-2.02.656M246.8,85.315l-6.413,15.2h12.926l-6.413-15.2Z" transform="translate(58.813 12.252)" fill="#231f20"/>
    <path id="Path_30" data-name="Path 30" d="M323.527,114.3a20.544,20.544,0,0,1-9.973-2.222,14.814,14.814,0,0,1-6.185-6.311,20.8,20.8,0,0,1-2.121-9.7,20.671,20.671,0,0,1,2.171-9.77,15.214,15.214,0,0,1,6.262-6.362,20.062,20.062,0,0,1,9.8-2.247,24.386,24.386,0,0,1,5.681.681,17.446,17.446,0,0,1,5.377,2.3,2.456,2.456,0,0,1,1.288,1.742,3.185,3.185,0,0,1-.328,2.045,2.754,2.754,0,0,1-1.515,1.338,2.529,2.529,0,0,1-2.221-.328,15.4,15.4,0,0,0-3.888-1.616,17.73,17.73,0,0,0-4.393-.505q-5.656,0-8.558,3.282t-2.9,9.442q0,6.211,2.979,9.442t8.836,3.232a21.606,21.606,0,0,0,3.408-.277,22.774,22.774,0,0,0,3.459-.833V99.353h-5.555q-2.626,0-2.625-2.423,0-2.373,2.625-2.373h8.332a2.321,2.321,0,0,1,2.626,2.626v12.27a2.81,2.81,0,0,1-1.818,2.979,31.894,31.894,0,0,1-5.1,1.338,31.177,31.177,0,0,1-5.655.53" transform="translate(21.172 12.352)" fill="#231f20"/>
    <path id="Path_31" data-name="Path 31" d="M64.259,100.532c0-4.369-.035-8.738.009-13.107.071-7.211,5.774-13.669,12.585-14.317,8.01-.762,14.661,3.933,16.254,11.472a26.587,26.587,0,0,1,.214,5.413q.038,6.74,0,13.482a6.03,6.03,0,0,1-12.031.817,56.887,56.887,0,0,1,.2-11.955,10.99,10.99,0,0,1,4.717-7.365c.574-.414,1.368-1.4,2.047-.424.569.814,1.1,2.183.1,2.926-3.615,2.69-3.869,6.442-3.691,10.425.081,1.807-.014,3.62.026,5.43.039,1.832,1.116,3.058,2.6,3.05a2.841,2.841,0,0,0,2.76-2.977c.08-3.744.059-7.489.031-11.234a38.3,38.3,0,0,0-.266-6.534c-.981-5.491-6.142-9.715-11.461-9.293-6.023.477-10.5,4.962-10.562,10.839-.091,8.924-.044,17.85-.021,26.776.006,2.3,1.307,3.7,3.3,3.721,2.043.023,3.4-1.319,3.416-3.6q.063-8.893-.007-17.788A9,9,0,0,0,70.2,88.6c-.68-.463-1.318-.857-1.251-1.884.139-2.122.705-2.5,2.5-1.369,4.133,2.616,6.5,6.288,6.5,11.294.008,5.8.02,11.609,0,17.414a6.842,6.842,0,0,1-6.845,7.133c-3.871,0-6.8-3.046-6.833-7.178-.036-4.494-.008-8.988-.008-13.482" transform="translate(140.808 14.667)" fill="#04b9e4"/>
    <path id="Path_32" data-name="Path 32" d="M130.9,112.332c0-2.5.016-4.992,0-7.488a8.511,8.511,0,0,0-5.268-8.319,3.331,3.331,0,0,1-1.153-.592,2.726,2.726,0,0,1-.588-2.8c.387-.895,1.357-.218,1.989-.04,4.992,1.4,8.17,5.645,8.373,11.587.181,5.3.046,10.607.037,15.91a2.6,2.6,0,0,1-.7,2.064,1.446,1.446,0,0,1-1.575.268,1.736,1.736,0,0,1-1.092-1.794c-.009-2.932,0-5.865,0-8.8H130.9" transform="translate(111.287 4.91)"/>
    <path id="Path_33" data-name="Path 33" d="M39.233,113.039c.115-1.915-.375-5.112.325-8.263a12.6,12.6,0,0,1,9.472-10.055c.543-.153,1.5-.815,1.722.191.2.88.376,2.049-.691,2.7a9.454,9.454,0,0,1-1.389.551,9.464,9.464,0,0,0-6.135,9c-.029,4.369-.007,8.738-.012,13.107a14.524,14.524,0,0,1-.05,1.683c-.119,1.009-.5,1.877-1.7,1.826-1.093-.047-1.5-.895-1.519-1.815-.058-2.557-.02-5.117-.02-8.933" transform="translate(153.255 4.074)"/>
    <path id="Path_34" data-name="Path 34" d="M81.378,50.137a6,6,0,1,1,12.009.167,6.2,6.2,0,0,1-6.028,5.972,6.063,6.063,0,0,1-5.98-6.139m8.572.152a2.617,2.617,0,0,0-2.434-2.581,2.39,2.39,0,0,0-2.651,2.465A2.365,2.365,0,0,0,87.2,52.763a2.657,2.657,0,0,0,2.75-2.474" transform="translate(132.304 28.985)" fill="#04b9e4"/>
    <path id="Path_35" data-name="Path 35" d="M117.749,70.663a6,6,0,1,1,12.009.167,6.2,6.2,0,0,1-6.028,5.972,6.063,6.063,0,0,1-5.98-6.139m8.572.152a2.617,2.617,0,0,0-2.434-2.581,2.39,2.39,0,0,0-2.651,2.465,2.365,2.365,0,0,0,2.335,2.589,2.657,2.657,0,0,0,2.75-2.474" transform="translate(114.249 18.796)"/>
    <path id="Path_36" data-name="Path 36" d="M50.311,67.431a5.826,5.826,0,1,1,5.878,5.993,5.919,5.919,0,0,1-5.878-5.993m5.776-2.568a2.616,2.616,0,1,0,2.764,2.656,2.768,2.768,0,0,0-2.764-2.656" transform="translate(147.726 20.374)"/>
  </g>
</svg>
